Coordinates
version=1
nRows=17
nColumns=33
inDegrees=yes

Units are S.I. units (second, meters, Newtons, ...)
Angles are in degrees.

endheader
time	ground_thorax_rot_x	ground_thorax_rot_y	ground_thorax_rot_z	ground_thorax_tx	ground_thorax_ty	ground_thorax_tz	clav_prot_r	clav_elev_r	scapula_abduction_r	scapula_elevation_r	scapula_upward_rot_r	scapula_winging_r	shoulder_elv_r	plane_of_elev_r	axial_rot_r	elbow_flexion_r	pro_sup_r	wrist_flex_r	wrist_dev_r	clav_prot_l	clav_elev_l	scapula_abduction_l	scapula_elevation_l	scapula_upward_rot_l	scapula_winging_l	shoulder_elv_l	plane_of_elev_l	axial_rot_l	elbow_flexion_l	pro_sup_l	wrist_flex_l	wrist_dev_l
      2.07000000	      2.99076728	     -9.11099647	      8.46536669	     -0.11621378	      1.03108077	      0.00836812	      1.70039243	     -8.40161932	      2.47286322	     -1.14207353	     -0.94620624	      0.99308868	     34.81981513	      7.98497420	     17.48426158	     59.36793619	     44.15251249	      8.42205149	     19.97490789	      3.12129369	    -14.90445032	     -0.88911428	      1.01868480	    -17.92501930	     -5.80762068	     51.08412784	      4.55830172	     -2.24475347	     61.82446731	     40.61722052	     13.23438557	     -6.21412703
      2.08000000	      2.98917912	     -9.11353818	      8.49704564	     -0.11603490	      1.03120726	      0.00840203	      1.70633991	     -8.41383561	      2.48817404	     -1.15628461	     -0.93942247	      0.99215268	     34.81221167	      8.02013635	     17.48818436	     59.37541148	     44.14914862	      8.42025651	     19.97212320	      3.13090905	    -14.92426983	     -0.90586723	      1.03723689	    -17.92591672	     -5.81056220	     51.07484679	      4.58469349	     -2.25827918	     61.83905803	     40.61713168	     13.23219923	     -6.22572050
      2.09000000	      2.98772326	     -9.11437494	      8.50971803	     -0.11560498	      1.03152156	      0.00850674	      1.70783376	     -8.41785127	      2.49219079	     -1.15812967	     -0.93378613	      0.99559817	     34.81233671	      8.02868368	     17.48786134	     59.37705035	     44.14871336	      8.42013841	     19.97165565	      3.13468039	    -14.92820583	     -0.90979320	      1.03976532	    -17.92198587	     -5.81651156	     51.07473305	      4.59246212	     -2.26072179	     61.84246003	     40.61675302	     13.23184371	     -6.22716420
      2.10000000	      3.11344017	     -9.08905591	      8.46801842	     -0.11580430	      1.03136462	      0.00843142	      1.75887600	     -8.44357371	      2.65652983	     -1.24990636	     -0.78493274	      0.93893398	     34.95790002	      8.22671906	     17.55504789	     59.15743064	     44.14604816	      8.36625602	     19.97221054	      3.24152320	    -14.98083719	     -1.10185049	      1.09728600	    -17.90584276	     -5.76545725	     51.06301993	      4.75059507	     -2.44892797	     61.93018885	     40.58685042	     13.22063209	     -6.34830137
      2.11000000	      3.09228535	     -9.08278586	      8.52499742	     -0.11561855	      1.03148797	      0.00851272	      1.77232207	     -8.47054014	      2.68873257	     -1.27943984	     -0.77402150	      0.93719571	     34.93606067	      8.29274945	     17.56402508	     59.17175999	     44.14075729	      8.36575115	     19.96987673	      3.25630697	    -15.01489534	     -1.12710812	      1.13309459	    -17.89823234	     -5.77292124	     51.05358718	      4.80107002	     -2.46028818	     61.94405204	     40.58086975	     13.21768604	     -6.35976905
      2.12000000	      3.09200629	     -9.10575362	      8.22067799	     -0.11602261	      1.03147186	      0.00860935	      1.94270270	     -8.45819383	      3.09747924	     -1.36512523	     -0.54045762	      0.78557961	     35.05748264	      8.82379093	     17.69416683	     58.68769781	     44.04065940	      8.19292306	     19.96987815	      3.47497269	    -15.05430440	     -1.55591081	      1.26669692	    -17.67318206	     -5.63509202	     51.21664277	      5.08532853	     -2.43147158	     61.70034576	     40.36887659	     13.15456329	     -6.61040030
      2.13000000	      3.18146185	     -9.07624638	      8.29115904	     -0.11582903	      1.03156029	      0.00861004	      1.96050731	     -8.48844709	      3.15881589	     -1.41818627	     -0.48221757	      0.77254173	     35.11015303	      8.94641149	     17.59282123	     58.53999031	     43.99998435	      8.12875694	     19.95474533	      3.53411014	    -15.09466483	     -1.64351154	      1.28066864	    -17.72299099	     -5.62178651	     51.10677967	      5.22253383	     -2.42538242	     61.83408618	     40.26079683	     13.12235367	     -6.69915759
      2.14000000	      3.15262223	     -9.07167679	      8.39747008	     -0.11557481	      1.03171607	      0.00865736	      1.97163090	     -8.53067177	      3.19643056	     -1.46846118	     -0.45694293	      0.77420370	     35.08721705	      9.04179762	     17.58214853	     58.56175559	     43.99156731	      8.12712227	     19.95045492	      3.55208923	    -15.14473988	     -1.67555207	      1.32843707	    -17.72245336	     -5.63601375	     51.07934460	      5.29810413	     -2.44310005	     61.87006752	     40.24550836	     13.11849301	     -6.71252951
      2.15000000	      3.12921444	     -9.06749824	      8.05568044	     -0.11600253	      1.03177500	      0.00866147	      2.18054954	     -8.55922822	      3.68769664	     -1.59988241	     -0.20285968	      0.60977421	     35.17077836	      9.69943060	     17.43195398	     57.82329490	     43.77697309	      7.85029754	     20.00401970	      3.81476109	    -15.15194733	     -2.18654376	      1.43924639	    -17.47364844	     -5.45319976	     51.13405878	      5.75698519	     -2.30610038	     61.64084442	     39.61655330	     13.03955888	     -6.96830300
      2.16000000	      3.24488536	     -9.05257239	      8.19350135	     -0.11571744	      1.03188488	      0.00868093	      2.19376270	     -8.60319312	      3.75185535	     -1.67161420	     -0.12948048	      0.60216285	     35.22293083	      9.84214343	     17.30277904	     57.73737504	     43.72371328	      7.79882903	     19.99673390	      3.87868434	    -15.19066395	     -2.28083076	      1.44628479	    -17.53366188	     -5.44121318	     50.98980967	      5.92439839	     -2.34582185	     61.83335965	     39.44750778	     13.01199195	     -7.04455489
      2.17000000	      3.24024458	     -9.09564090	      8.21073488	     -0.11618274	      1.03097627	      0.00872636	      2.86857465	     -7.88917958	      4.76445901	     -0.92205186	     -0.29620430	      0.06370711	     35.15878466	     10.91550893	     16.43274012	     57.17627438	     42.41771197	      7.08432933	     20.16027343	      4.54693347	    -14.58769404	     -3.52715517	      0.98905827	    -17.17579747	     -4.74830921	     50.30992856	      6.63438463	     -1.40634506	     61.41241285	     35.68244517	     12.51524721	     -7.75079434
      2.18000000	      3.29608611	     -9.00840129	      8.33009736	     -0.11600470	      1.03123040	      0.00864847	      2.89910304	     -7.98249910	      4.88585316	     -1.05885252	     -0.17799149	      0.04563673	     35.30840257	     11.07340077	     16.42385108	     57.06145962	     42.43097550	      7.07343235	     20.16182901	      4.61748826	    -14.70372528	     -3.64860880	      1.10245927	    -17.16873324	     -4.75234375	     50.24407970	      6.82049805	     -1.63747140	     61.55671552	     35.59959271	     12.49562141	     -7.78119120
      2.19000000	      3.26407915	     -8.97893715	      8.13209487	     -0.11600658	      1.03151015	      0.00861220	      2.99886618	     -8.13801110	      5.17551224	     -1.28763933	      0.02178281	     -0.01159973	     35.55116492	     11.50935763	     16.40594667	     56.85917025	     42.42539278	      7.04541445	     20.20252820	      4.70577131	    -14.83851977	     -3.85500979	      1.34462148	    -16.92425053	     -4.72349841	     50.29742517	      7.14751263	     -1.80527334	     61.52369292	     35.17105783	     12.37524891	     -7.72878945
      2.20000000	      3.34037493	     -8.95945513	      8.30402791	     -0.11573534	      1.03184045	      0.00853484	      3.00460525	     -8.25082922	      5.25890148	     -1.44514675	      0.14472508	     -0.00860681	     35.63310721	     11.72251321	     16.29515490	     56.77535376	     42.42523176	      7.02224148	     20.20360186	      4.74889928	    -14.93649350	     -3.91988551	      1.42369697	    -16.95664939	     -4.74242687	     50.15867490	      7.37549048	     -1.89756228	     61.75400226	     35.03310789	     12.33962468	     -7.75180052
      2.21000000	      3.28171069	     -9.05383881	      7.93338645	     -0.11552262	      1.03198478	      0.00853902	      3.13310859	     -8.38141581	      5.64710160	     -1.69359105	      0.44766424	     -0.11503085	     35.81184846	     12.43140670	     16.18423330	     56.51989487	     42.41000281	      6.97106341	     20.32175491	      4.78885743	    -14.93246744	     -4.06574150	      1.56887447	    -16.63252056	     -4.67647893	     50.11868496	      7.92984125	     -1.78440746	     61.89342828	     34.17687354	     12.12425289	     -7.63792768
      2.22000000	      3.35812529	     -9.25076453	      8.30976836	     -0.11583802	      1.03141522	      0.00844175	      3.83303815	     -7.86809040	      6.61669749	     -1.03635471	      0.04823039	     -0.56313974	     36.07987767	     13.46696612	     15.43356089	     56.21781505	     42.22850304	      6.87128908	     20.85054519	      4.86170462	    -14.36353114	     -4.31739408	      1.23640393	    -16.14570783	     -4.33099940	     49.10503631	      8.48410545	     -2.06302652	     61.52315867	     29.37742972	     10.87265321	     -6.83148476
      2.23000000	      3.41740258	     -9.21034311	      8.47172298	     -0.11563453	      1.03184953	      0.00830926	      3.82790436	     -7.99514808	      6.71855429	     -1.23967274	      0.24669298	     -0.57076847	     36.21683121	     13.74443848	     15.32716602	     56.22013140	     42.24059378	      6.86641266	     20.82593962	      4.91044552	    -14.51057477	     -4.40210658	      1.38187570	    -16.13731357	     -4.35778345	     49.04363563	      8.77060455	     -2.22296116	     61.83764303	     29.31857674	     10.82416450	     -6.87797709
